<svg xmlns="http://www.w3.org/2000/svg" width="14.406" height="9.274" viewBox="0 0 14.406 9.274">
  <g id="eye" transform="translate(0 -82.176)">
    <g id="Group_93" data-name="Group 93" transform="translate(4.64 84.249)">
      <g id="Group_92" data-name="Group 92" transform="translate(0 0)">
        <path id="Path_243" data-name="Path 243" d="M158.979,156.416a2.563,2.563,0,1,0,2.564,2.563A2.565,2.565,0,0,0,158.979,156.416Zm-.194,1.8a.589.589,0,0,0-.583.583h-.849a1.449,1.449,0,0,1,1.432-1.432Z" transform="translate(-156.416 -156.416)" fill="#707070"/>
      </g>
    </g>
    <g id="Group_95" data-name="Group 95" transform="translate(0 82.176)">
      <g id="Group_94" data-name="Group 94" transform="translate(0 0)">
        <path id="Path_244" data-name="Path 244" d="M14.238,86.333c-.783-.975-3.582-4.157-7.035-4.157S.951,85.358.168,86.333a.769.769,0,0,0,0,.959c.783.975,3.582,4.157,7.035,4.157s6.252-3.182,7.035-4.157A.769.769,0,0,0,14.238,86.333ZM7.2,90.171a3.358,3.358,0,1,1,3.358-3.358A3.357,3.357,0,0,1,7.2,90.171Z" transform="translate(0 -82.176)" fill="#707070"/>
      </g>
    </g>
  </g>
</svg>
