<svg xmlns="http://www.w3.org/2000/svg" width="386.836" height="322.621" viewBox="0 0 386.836 322.621">
  <g id="Untitled-8" style="mix-blend-mode: normal;isolation: isolate">
    <g id="Layer_1" data-name="Layer 1" transform="translate(0)">
      <path id="Path_206" data-name="Path 206" d="M433.654,156.514a169.565,169.565,0,0,1,24.287-62.123q.587-.932,1.188-1.832a179.857,179.857,0,0,1,44.818-46.715l.349.466a179.093,179.093,0,0,0-45.852,48.4,168.966,168.966,0,0,0-24.18,61.909c-4.432,25.76-1.44,50.028,8.18,68.765q3.02-.494,6.059-.965c-8.585-19.216-10.575-43.5-5.127-69.254A175.337,175.337,0,0,1,517,46.311l.345.517a174.782,174.782,0,0,0-73.4,108.451c-5.411,25.69-3.412,49.907,5.178,69.025,19.379-2.964,39.038-4.707,57.9.294a84.766,84.766,0,0,1,28.006,13.362q2.265,1.431,4.442,3.006,2.237,1.4,4.376,2.96c1.515.932,3,1.944,4.446,2.983q2.274,1.4,4.437,2.964,2.33,1.426,4.521,2.992,2.3,1.4,4.484,2.946,2.33,1.4,4.563,2.955l.061.047c1.189.708,2.358,1.44,3.5,2.2.34.224.671.466,1.007.694.862.5,1.715,1.016,2.554,1.552q1.072.68,2.13,1.4c.466.275.932.55,1.426.834,1.128.68,2.256,1.4,3.374,2.144l.182.1q2.354,1.333,4.689,2.857c1.673.932,3.342,1.892,4.987,2.927q2.1,1.119,4.195,2.33l.839.513c.858.429,1.715.867,2.559,1.319s1.752.969,2.624,1.477c.256.121.517.233.769.354q2.181,1.039,4.334,2.242,2.657,1.147,5.253,2.484a83.028,83.028,0,0,1,29.12,19.309c9.322,9.788,14.709,21.169,15.581,32.914l-.625.047c-.862-11.6-6.194-22.838-15.413-32.527a80.816,80.816,0,0,0-22.977-16.55,93.3,93.3,0,0,1,17.632,13.931c10.887,10.971,18.177,23.924,20.535,36.475l-.587.107c-2.33-12.435-9.569-25.275-20.372-36.158a92.43,92.43,0,0,0-22.6-16.718,106.728,106.728,0,0,1,19.915,16.779c10.687,11.423,18.983,25.042,22.8,37.388l-.55.172c-3.8-12.272-12.062-25.806-22.665-37.146A104.99,104.99,0,0,0,608.063,283.9l-.3-.112-.424-.145a121.08,121.08,0,0,1,20.531,18.718c10.333,11.652,19.463,25.6,25.056,38.26l-.5.219c-5.57-12.607-14.667-26.5-24.968-38.12a119.344,119.344,0,0,0-21.98-19.706c-.433-.144-.867-.3-1.3-.433a138.391,138.391,0,0,1,20.572,20.265,293.265,293.265,0,0,1,27.317,39.15l-.443.261a292.506,292.506,0,0,0-27.27-39.09,135.358,135.358,0,0,0-21.589-21.025c-.536-.163-1.067-.336-1.608-.466a159.538,159.538,0,0,1,20.475,21.668c7.322,9.088,14.481,19.109,20.8,27.922,3.113,4.353,6.059,8.464,8.781,12.146l-.392.289c-2.726-3.682-5.672-7.793-8.785-12.151-6.315-8.823-13.47-18.825-20.782-27.9a156.685,156.685,0,0,0-21.206-22.288c-.6-.168-1.2-.331-1.808-.466a184.34,184.34,0,0,1,20.279,22.954c3.533,4.577,7.1,9.373,10.552,14.01,7.527,10.118,14.639,19.673,21.29,26.967l-.34.312c-6.67-7.313-13.786-16.876-21.318-27-3.449-4.637-7.019-9.429-10.552-13.982-5.905-7.69-12.794-16.108-20.871-23.49-.643-.163-1.286-.312-1.93-.466,7.658,7.686,14.234,16.289,20.041,24.157q2.139,2.88,4.3,5.817c9.834,13.358,20,27.163,29.829,36.083l-.289.322c-9.839-8.949-20.041-22.777-29.871-36.149l-4.293-5.812c-5.933-8.03-12.668-16.825-20.507-24.618-.685-.158-1.4-.312-2.06-.466,6.954,7.508,13.222,16.047,19.808,25.3,11.074,15.5,23.63,33.063,36.354,42.823l-.247.322c-12.789-9.788-25.364-27.387-36.456-42.911-6.7-9.415-13.05-18.088-20.167-25.685-.741-.158-1.478-.312-2.223-.466,7.047,8.142,13.278,17.193,19.37,26.054l.233.336c21.491,31.143,31.227,38.912,38.642,43.75l-.21.317c-6.432-4.195-13.1-10.449-20.381-19.137-6.525-7.77-12.673-16.471-18.363-24.7l-.233-.34c-6.176-8.981-12.5-18.177-19.654-26.38-.76-.149-1.519-.3-2.279-.433,6.306,7.76,11.927,16.229,17.431,24.52l1.925,2.9c20.507,30.686,32.159,39.807,40.917,44.682l-.173.308c-7.149-3.994-14.355-10.254-22.017-19.109a265.4,265.4,0,0,1-19.016-25.671l-1.93-2.9c-5.57-8.389-11.26-16.97-17.655-24.8-.788-.14-1.575-.275-2.363-.4,5.691,7.457,10.808,15.427,15.823,23.262,1.1,1.711,2.191,3.426,3.291,5.127,10.873,16.779,25.606,37.155,43.191,45.619l-.14.289c-7.858-3.78-15.59-10.03-23.648-19.109-6.124-6.893-12.374-15.352-19.673-26.627q-1.65-2.559-3.291-5.127c-5.076-7.923-10.254-16.01-16.024-23.513-.8-.13-1.608-.247-2.414-.368,5.173,7.15,9.862,14.742,14.448,22.19,1.445,2.33,2.936,4.763,4.423,7.131,21.085,33.534,36.046,42.627,45.466,46.547l-.112.275c-8.557-3.561-16.825-9.788-25.28-19.081-6.553-7.275-13.013-16.019-20.321-27.671-1.482-2.368-2.978-4.787-4.423-7.131-4.661-7.522-9.377-15.194-14.611-22.4-.83-.121-1.664-.238-2.493-.35,4.731,6.893,9.046,14.131,13.278,21.248,1.752,2.946,3.565,5.994,5.379,8.958,10.193,16.671,26.231,39.728,47.745,47.488l-.089.252c-21.593-7.783-37.668-30.887-47.875-47.6-1.813-2.969-3.626-6.012-5.378-8.958-4.274-7.182-8.627-14.49-13.409-21.439-.848-.112-1.7-.224-2.545-.326,4.344,6.651,8.329,13.586,12.244,20.4,2.018,3.5,4.1,7.136,6.194,10.654,7.28,12.22,14.346,21.854,21.6,29.456,9.1,9.531,18.666,15.916,28.43,18.974l-.07.228c-9.788-3.071-19.407-9.475-28.533-19.039-7.275-7.583-14.336-17.249-21.64-29.488-2.1-3.524-4.195-7.154-6.194-10.664-3.948-6.865-7.942-13.856-12.346-20.563-.872-.1-1.743-.21-2.615-.308,4,6.427,7.7,13.078,11.335,19.631,2.242,4.036,4.558,8.212,6.9,12.253,16.313,28.1,33.441,44.249,52.312,49.366l-.056.205c-18.927-5.127-36.079-21.314-52.438-49.464-2.33-4.041-4.661-8.222-6.907-12.258-3.659-6.595-7.383-13.292-11.419-19.762l-2.652-.284c3.7,6.213,7.126,12.584,10.505,18.9,2.442,4.544,4.964,9.242,7.532,13.777,7.406,13.05,14.914,23.3,22.9,31.362,9.9,9.965,20.563,16.313,31.693,18.946l-.042.177c-11.186-2.615-21.854-9-31.782-18.992-8.031-8.054-15.516-18.34-22.945-31.39-2.573-4.535-5.094-9.233-7.536-13.782-3.4-6.334-6.851-12.761-10.575-19.007-.9-.093-1.8-.177-2.708-.261,3.421,6,6.614,12.118,9.788,18.21,2.615,5.029,5.313,10.23,8.086,15.231,7.48,13.474,15.185,24.049,23.555,32.318,10.3,10.179,21.519,16.546,33.329,18.927l-.033.154c-11.838-2.386-23.08-8.772-33.4-18.969-8.389-8.277-16.1-18.862-23.583-32.355-2.8-5-5.476-10.2-8.091-15.231-3.174-6.11-6.381-12.267-9.8-18.326-5.071-.466-10.142-.862-15.161-1.24-5.686-.429-11.563-.872-17.305-1.44-10.622-1.053-23.681-2.885-36.545-7.066q-4.908-1.207-9.391-2.7-3.831-.974-7.415-2.135-4.88-1.179-9.382-2.68-3.817-.96-7.411-2.116-4.362-1.039-8.445-2.33-4.479-1.063-8.678-2.4-4.195-.979-8.1-2.209-4.53-1.03-8.79-2.33-4.423-.993-8.6-2.27-4.446-.969-8.66-2.233-4.5-.96-8.776-2.2-4.591-.932-8.953-2.2c-3.053-.611-6.059-1.31-8.939-2.116q-4.549-.876-8.893-2.027-4.759-.867-9.321-2.032c-3.16-.545-6.25-1.174-9.265-1.911a136.307,136.307,0,0,1-20.624-4.954,112.705,112.705,0,0,1-34-17.953A89.1,89.1,0,0,1,278.9,178.028a92.688,92.688,0,0,1-9.788-34.8,131.783,131.783,0,0,1,2.06-36.536c4.591-24.04,14.527-46.8,24.133-68.811l.145.061c-9.6,22-19.533,44.743-24.124,68.783a131.447,131.447,0,0,0-2.055,36.489,93.1,93.1,0,0,0,9.788,34.746,89.181,89.181,0,0,0,24.557,28.994,112.6,112.6,0,0,0,33.953,17.925,134.124,134.124,0,0,0,18.773,4.637c-.7-.182-1.4-.354-2.1-.55-3.3-.932-6.567-1.971-9.708-3.137-25.205-9.321-45.6-27.228-55.929-49.133A95.346,95.346,0,0,1,280,142.038a132.16,132.16,0,0,1,2.857-36.107c4.884-22.88,14.448-44.128,25.5-67.548l.163.079c-11.055,23.411-20.605,44.65-25.485,67.506a131.794,131.794,0,0,0-2.852,36.056,95.391,95.391,0,0,0,8.59,34.592c10.324,21.863,30.677,39.737,55.836,49.04,3.141,1.161,6.4,2.214,9.7,3.132,1.4.391,2.8.75,4.241,1.1q1.78.28,3.584.527c-.331-.1-.666-.191-.993-.294-3.262-1.03-6.483-2.2-9.578-3.486-24.287-10.049-43.708-28.733-53.286-51.268a97.827,97.827,0,0,1-7.406-34.489,132.741,132.741,0,0,1,3.659-35.687c5.5-23.453,16.266-45.615,26.823-66.332l.186.1C311,59.636,300.236,81.789,294.7,105.186a132.3,132.3,0,0,0-3.649,35.627,97.6,97.6,0,0,0,7.387,34.433c9.555,22.488,28.934,41.136,53.17,51.161,3.09,1.282,6.306,2.452,9.564,3.477.746.233,1.5.466,2.256.671q1.953.242,3.929.466c-3-1.077-5.961-2.284-8.813-3.6-23.4-10.72-41.853-30.216-50.63-53.412a100.135,100.135,0,0,1-6.2-34.354,133.248,133.248,0,0,1,4.456-35.268c6.241-23.966,17.841-46.141,28.23-65.013l.21.117c-10.379,18.876-21.975,41.015-28.207,64.957a133.143,133.143,0,0,0-4.451,35.2,100.472,100.472,0,0,0,6.189,34.275c8.753,23.141,27.163,42.562,50.5,53.282,3.048,1.4,6.222,2.685,9.429,3.817l.266.089c1.4.13,2.8.252,4.227.345-2.386-1-4.735-2.079-6.991-3.235A97.111,97.111,0,0,1,317.6,172.669a103.77,103.77,0,0,1-5.01-34.191,134.268,134.268,0,0,1,5.248-34.839c6.651-23.36,18.69-45.335,29.591-63.75l.233.135c-10.9,18.405-22.926,40.343-29.568,63.675a133.919,133.919,0,0,0-5.253,34.778,103.261,103.261,0,0,0,5,34.107,96.855,96.855,0,0,0,47.833,55.4c2.5,1.272,5.1,2.452,7.732,3.528l1.8.107c.862.047,1.729.084,2.605.117-1.785-.858-3.542-1.762-5.248-2.713A93.445,93.445,0,0,1,344.2,204.669a97.84,97.84,0,0,1-16.946-33.338c-5.872-20.479-5.076-44.794,2.26-68.471,7.406-23.924,20.433-45.96,30.957-62.482l.247.154c-10.51,16.513-23.527,38.526-30.924,62.417-7.317,23.621-8.114,47.875-2.256,68.3a97.494,97.494,0,0,0,16.9,33.236A93.109,93.109,0,0,0,372.71,228.77c1.9,1.058,3.854,2.055,5.84,2.992,1.505.051,3.02.084,4.553.1-1.193-.657-2.372-1.333-3.528-2.037a90.857,90.857,0,0,1-27.247-25.634,100.121,100.121,0,0,1-15.38-34.205c-5.01-20.666-3.5-44.78,4.255-67.9,3.668-10.939,10.533-28.249,28.128-54.964q2-3.043,4.195-6.255l.261.186c-9.913,14.495-24.049,36.6-32.28,61.135-7.737,23.061-9.247,47.111-4.251,67.721A99.777,99.777,0,0,0,352.6,204a90.583,90.583,0,0,0,27.13,25.545c1.319.806,2.671,1.575,4.036,2.33q2.33,0,4.693-.033-.932-.6-1.864-1.212a88.775,88.775,0,0,1-26.133-26.9,102.651,102.651,0,0,1-13.852-35.077c-4.139-20.838-1.916-44.743,6.259-67.32,5.243-14.49,12.733-29.032,23.168-44.878q4.819-7.35,10.505-15.087l.284.21c-16.1,21.905-26.795,40.94-33.646,59.863-8.147,22.516-10.365,46.36-6.245,67.115a102.4,102.4,0,0,0,13.805,34.956,88.471,88.471,0,0,0,26.035,26.795c.764.513,1.547,1.007,2.33,1.5,1.594-.037,3.207-.089,4.828-.163l-.35-.242c-19.859-14.225-33.119-37-37.323-64.118-3.263-20.973-.322-44.7,8.259-66.746a201.887,201.887,0,0,1,19.883-37.752q6.763-10.254,15.175-20.936l.3.233c-16.205,20.559-27.657,39.724-35,58.59-8.562,21.989-11.484,45.624-8.24,66.555,4.195,27.032,17.394,49.7,37.174,63.852l.741.517q2.456-.117,4.945-.294c-18.592-14.914-30.5-38.078-33.557-65.385-2.41-21.439,1.142-44.31,10.254-66.182a192.741,192.741,0,0,1,17.054-31.67,270.054,270.054,0,0,1,19.365-25.695l.312.261c-16.522,19.529-28.43,38.279-36.354,57.327-9.1,21.794-12.64,44.6-10.254,65.968,3.076,27.368,15.054,50.541,33.758,65.385,1.678-.121,3.365-.266,5.066-.424-17.175-15.6-27.638-38.982-29.554-66.262-1.51-21.547,2.731-44.23,12.267-65.6a187.08,187.08,0,0,1,14.653-26.538,243.812,243.812,0,0,1,23.141-29.619l.322.294C409.381,61.445,396.694,80.3,388.254,99.206c-9.508,21.3-13.74,43.913-12.23,65.385,1.916,27.326,12.435,50.718,29.7,66.238,1.72-.163,3.444-.35,5.187-.555-15.809-16.233-24.874-39.8-25.634-67-.615-21.635,4.321-44.118,14.271-65.017a182.781,182.781,0,0,1,12.374-21.854A225.259,225.259,0,0,1,438.711,43.37l.331.317c-16.877,17.343-30.024,35.771-39.076,54.768-9.923,20.838-14.84,43.247-14.225,64.784.778,27.223,9.885,50.8,25.76,66.942l2.167-.27c1.039-.135,2.083-.289,3.132-.433-14.448-16.825-22.185-40.52-21.845-67.581a147.656,147.656,0,0,1,16.271-64.439,180.268,180.268,0,0,1,10.207-17.552,210.375,210.375,0,0,1,30.323-36.069l.336.35c-17.161,16.434-30.761,34.434-40.427,53.5a147.209,147.209,0,0,0-16.224,64.225c-.336,27.06,7.411,50.741,21.933,67.487q2.726-.387,5.462-.811c-13.05-17.324-19.617-41.578-18.21-68.047A152.548,152.548,0,0,1,422.9,96.685q3.729-6.884,8.068-13.516A198.639,198.639,0,0,1,464.8,44.312l.345.382a192.977,192.977,0,0,0-41.788,52.2,152.279,152.279,0,0,0-18.214,63.642c-1.4,26.45,5.2,50.676,18.275,67.916q2.8-.438,5.593-.895c-11.838-17.86-17.156-42.152-14.709-68.4a158.219,158.219,0,0,1,20.279-63.283q2.685-4.7,5.714-9.294a192.443,192.443,0,0,1,37.552-41.8l.345.42a189.533,189.533,0,0,0-43.14,50.942,158.156,158.156,0,0,0-20.209,63.064c-2.447,26.226,2.894,50.476,14.756,68.252l5.733-.955c-10.692-18.359-14.817-42.669-11.358-68.7a163.82,163.82,0,0,1,22.283-62.7q1.692-2.8,3.491-5.528a185.573,185.573,0,0,1,41.145-44.3l.35.466a183.874,183.874,0,0,0-44.5,49.67,163.233,163.233,0,0,0-22.2,62.482c-3.454,25.993.68,50.252,11.391,68.513,1.953-.326,3.91-.657,5.872-.979C432.2,206.641,429.212,182.321,433.654,156.514Zm8.855,69.012c.6,1.165,1.23,2.3,1.864,3.421l5.831-.932c-.578-1.137-1.142-2.288-1.669-3.463q-3.013.482-6.031.974Zm-64.318,7.811c1.156.405,2.33.8,3.5,1.17q1.794.261,3.621.466-1.645-.634-3.263-1.314-1.943-.13-3.868-.322Zm-1.03-.1q-1.72-.182-3.416-.4,1.636.466,3.3.932c1.044.186,2.088.373,3.146.536q-1.533-.527-3.039-1.067Zm200.784,40.642c-.5-.648-1-1.3-1.51-1.934-.769-.158-1.547-.308-2.33-.466.5.666.993,1.342,1.487,2.018.676.1,1.356.2,2.032.308Zm20.377,5.094c-.186-.126-.373-.256-.564-.378-.261-.117-.527-.219-.792-.331l.573.443.732.247ZM400.372,237.732q2,.172,4.027.3-1.007-.517-1.995-1.058c-.392-.214-.778-.443-1.165-.662q-2.144-.047-4.251-.149Q398.652,236.977,400.372,237.732Zm-4.255-1.608q-2.027-.1-4.018-.252,1.687.7,3.412,1.366c1.258.149,2.526.289,3.808.41Q397.692,236.935,396.116,236.124Zm177.108,34.625c-.494-.652-1-1.3-1.505-1.939-.769-.163-1.543-.317-2.33-.466.494.667.983,1.342,1.468,2.018.788.121,1.571.252,2.33.387Zm-16.541-17.855.382.312.583.3-.238-.177Zm-113.5-16.168c.82.965,1.673,1.9,2.54,2.824q2.475-.247,4.959-.531c-.34-.41-.69-.816-1.021-1.235-.466-.569-.886-1.142-1.319-1.729C446.625,236.288,444.9,236.511,443.181,236.726Zm-28.02,1.864q-2.172,0-4.311-.051,1.6.909,3.262,1.752,2.028.126,4.087.2c-.685-.405-1.37-.82-2.037-1.244-.336-.2-.667-.447-1.007-.643Zm1.235.294c.89.564,1.8,1.109,2.722,1.645q2.116.07,4.269.089c-.117-.075-.233-.149-.345-.228-.886-.6-1.757-1.226-2.619-1.864q-2.251.061-4.465.07a4.285,4.285,0,0,0,.438.3ZM581.907,269.43l.648.531.89.378-.611-.443ZM429.921,241.55c-.312-.228-.62-.466-.932-.7q-2.2.051-4.372.042c1.016.662,2.055,1.3,3.113,1.916q2.065.075,4.157.107Q430.895,242.244,429.921,241.55Zm.284-.4c.844.606,1.71,1.193,2.587,1.776h4.316c-.1-.079-.21-.154-.308-.233-.853-.653-1.687-1.328-2.512-2.023q-2.27.112-4.512.168c.144.093.294.205.429.289Zm6.059,3.943q2.013.089,4.06.13c-.969-.657-1.915-1.328-2.843-2.023q-2.139.033-4.251,0c1,.662,2.013,1.286,3.043,1.892Zm8.487,2.33q1.948.1,3.934.149-1.4-.965-2.768-1.985h-4.143c.979.615,1.976,1.226,2.988,1.822Zm8.389,2.33c1.282.07,2.573.121,3.878.163-.932-.629-1.827-1.282-2.717-1.944q-2.051,0-4.06-.028c.946.615,1.916,1.216,2.9,1.8Zm8.389,2.354q1.864.112,3.729.186c-.9-.615-1.776-1.254-2.638-1.9-1.328,0-2.643-.023-3.948-.051q1.4.9,2.857,1.762Zm8.282,2.372q1.864.126,3.766.21c-.885-.6-1.762-1.221-2.624-1.864q-1.971,0-3.91-.07c.9.592,1.827,1.161,2.768,1.72Zm103.958,10.65-.662-.564c-.564-.252-1.123-.508-1.7-.746.419.4.844.8,1.254,1.2.559.2,1.1.41,1.655.615Zm-6.786-3.729c-.34-.331-.68-.643-1.025-.965-.611-.256-1.226-.5-1.864-.741.466.466.9.932,1.342,1.4.639.21,1.263.438,1.864.662a2.731,2.731,0,0,0-.317-.35Zm-6.786-3.729c-.405-.429-.825-.844-1.24-1.268-.662-.256-1.333-.5-2-.746h0c.466.513.932,1.044,1.4,1.571.685.21,1.366.429,2.041.653a2.71,2.71,0,0,1-.2-.2ZM448.876,242.7c.671.625,1.356,1.24,2.051,1.836.228.2.466.382.69.573,1.459-.056,2.932-.126,4.418-.219h.1c-.872-.834-1.729-1.692-2.563-2.573-1.529.14-3.057.27-4.582.378Zm-4.856.708c.774.629,1.571,1.24,2.377,1.841q2.167-.028,4.367-.107l-.21-.172q-1.244-1.077-2.447-2.219-2.293.154-4.554.261Zm13.414,2.7c-.331-.3-.652-.61-.974-.932l-.405.028c-1.37.079-2.722.144-4.069.2q1.4,1.133,2.8,2.2c1.4,0,2.838-.037,4.274-.075C458.5,247.073,457.964,246.593,457.433,246.108Zm-.466-1.277q2.33-.144,4.661-.345c-.825-.885-1.631-1.8-2.41-2.736q-2.428.266-4.852.494,1.249,1.333,2.587,2.587Zm.317.3c.191.177.373.359.564.531.694.629,1.4,1.244,2.13,1.864,1.039-.037,2.079-.075,3.132-.126l1.286-.07c0-.028-.051-.047-.075-.07-.83-.8-1.636-1.622-2.424-2.461q-2.326.172-4.628.331Zm105.8,15.716c-.718-.219-1.44-.424-2.172-.625.494.6.974,1.207,1.454,1.818.737.172,1.473.35,2.2.536q-.736-.876-1.505-1.729Zm1.864,1.832c.7.182,1.4.364,2.1.564-.466-.536-.932-1.072-1.44-1.6-.694-.233-1.4-.466-2.1-.662q.723.839,1.436,1.7Zm-4.4-2.554c-.76-.205-1.519-.406-2.284-.592.5.643.988,1.286,1.473,1.939l.252.051c.685.135,1.361.294,2.037.466-.494-.639-.983-1.254-1.482-1.864Zm-.517-.615c-.489-.587-.983-1.175-1.487-1.752-.736-.224-1.473-.466-2.214-.657q.755.932,1.492,1.864c.736.172,1.473.34,2.2.545Zm-2.046-2.377c-.387-.438-.769-.881-1.165-1.31-.093-.1-.191-.2-.289-.3q-1.063-.378-2.139-.722.741.853,1.468,1.724c.708.2,1.417.4,2.121.611Zm-1.962-.117c-.755-.21-1.515-.405-2.279-.6.5.648,1,1.3,1.487,1.957.112.023.233.042.345.07.662.135,1.31.3,1.962.466-.5-.652-1.007-1.277-1.519-1.9Zm-.466-.573c-.494-.592-1-1.174-1.505-1.757-.736-.233-1.477-.466-2.223-.676q.755.932,1.487,1.864c.736.168,1.5.368,2.237.569Zm-2-2.33-.121-.14c-.466-.5-.9-.988-1.352-1.477q-1.077-.387-2.167-.75.741.853,1.464,1.729c.727.2,1.45.405,2.172.629Zm-3.929-2.466q-3.635-1.2-7.369-2.051c-16.7-3.831-34.177-2.3-51.077-.816-6.9.6-14.029,1.2-21.02,1.477l-1.5.042q1.263,1.049,2.7,2.125,2.89,0,5.844-.051c6.847-.158,13.847-.685,20.624-1.193,16.187-1.2,32.919-2.466,48.919,1.133,1.468.326,2.922.694,4.358,1.1q-.732-.9-1.487-1.771Zm-79.466-1.766c6.963-.252,14.089-.876,20.973-1.482,16.932-1.487,34.438-3.025,51.194.82,2.288.522,4.563,1.151,6.8,1.864-.466-.555-.983-1.1-1.482-1.645a83.038,83.038,0,0,0-9.787-2.96c-17.455-4.1-35.734-2.279-53.412-.513-6.18.615-12.547,1.254-18.825,1.627q1.226,1.146,2.643,2.33C468.88,249.925,469.514,249.906,470.152,249.883Zm-5.411-2.228-1.631.093-2.745.112c.9.741,1.813,1.459,2.754,2.163,1.4,0,2.8,0,4.223-.051C466.456,249.217,465.589,248.447,464.741,247.655Zm0-.848.5.466c6.38-.373,12.859-1.016,19.142-1.645,17.711-1.766,36.018-3.593,53.533.522a83.636,83.636,0,0,1,9.2,2.736q-.718-.764-1.464-1.529a82.965,82.965,0,0,0-12.239-3.976c-18.223-4.376-37.328-2.256-55.8-.2-4.912.545-9.941,1.1-14.952,1.538q1.025,1.072,2.079,2.079Zm82.7,2.2c.671.247,1.342.5,2.009.764-.466-.466-.932-.932-1.426-1.4-.662-.3-1.324-.587-1.995-.867q.713.741,1.412,1.491Zm.536.578c.466.531.969,1.067,1.445,1.608.7.228,1.4.466,2.093.708-.466-.513-.969-1.011-1.459-1.505q-1.035-.429-2.069-.82Zm3.91,2.452q.983.354,1.957.727c-.466-.466-.932-.909-1.4-1.352-.657-.289-1.324-.573-1.99-.844.5.475.965.96,1.431,1.459Zm.555.606c.373.405.746.8,1.114,1.216l.312.364c.685.214,1.366.438,2.046.671-.466-.489-.932-.983-1.4-1.463q-1.035-.419-2.074-.8Zm3.906,2.4c.648.224,1.3.466,1.934.7-.466-.466-.9-.881-1.361-1.314-.634-.275-1.272-.545-1.916-.806.438.457.9.932,1.342,1.412Zm2.577,2.852c.494.569.974,1.147,1.454,1.724.7.186,1.4.373,2.111.578-.466-.545-.979-1.081-1.473-1.617-.695-.247-1.38-.475-2.093-.694Zm4,2.438c.671.2,1.342.405,2,.62-.466-.466-.885-.932-1.338-1.4l-.07-.065c-.671-.256-1.342-.5-2.023-.741.471.513.937,1.025,1.426,1.575Zm3.207,1.51q.7.769,1.4,1.557c.657.186,1.319.373,1.972.578q-.7-.734-1.4-1.445c-.657-.247-1.314-.475-1.972-.7Zm3.966,2.33c.62.2,1.235.4,1.864.611-.438-.424-.876-.848-1.319-1.268-.62-.247-1.24-.5-1.864-.732.433.447.876.914,1.319,1.38Zm3.379,1.678c.466.466.9.932,1.347,1.4.6.186,1.2.368,1.8.564-.466-.429-.895-.853-1.347-1.272-.6-.242-1.188-.475-1.8-.708Zm-.713-.261c-.648-.233-1.3-.466-1.967-.671q.7.764,1.4,1.538c.662.186,1.324.373,1.981.573q-.7-.732-1.412-1.449Zm-2.554-.862c-.685-.224-1.375-.438-2.074-.643.466.555.969,1.114,1.445,1.683.7.177,1.4.359,2.088.545q-.718-.811-1.459-1.594Zm-2.54-.783c-.732-.214-1.459-.419-2.2-.615q.741.895,1.463,1.813c.737.163,1.473.34,2.2.517-.485-.587-.97-1.16-1.464-1.724Zm-2.591-.718c-.75-.2-1.5-.392-2.256-.569q.741.96,1.468,1.93h.1c.727.145,1.449.3,2.177.466-.494-.62-.988-1.23-1.491-1.836Zm-2.577-.657q-1.165-.275-2.33-.517c.494.676.988,1.356,1.473,2.046.783.126,1.566.27,2.33.415Q563.246,263.548,562.5,262.569Zm-2.615-.578h0c-.788-.158-1.585-.308-2.382-.466.5.713.988,1.426,1.473,2.149.806.112,1.608.233,2.41.364-.5-.667-1-1.352-1.5-2.037Zm-.419-.573q-.741-.988-1.5-1.958c-.778-.186-1.557-.368-2.33-.536.5.68.988,1.366,1.477,2.055q1.168.217,2.349.447Zm-4.069-2.545c-14.49-3.029-29.614-2.33-44.244-1.65-6.525.3-13.232.615-19.813.592q-6.353,0-12.346-.429,1.272.727,2.647,1.445,8.026.867,16.779,1.021c6.413.112,12.98-.089,19.328-.284,12.92-.391,26.245-.792,39.15,1.4-.5-.727-.988-1.4-1.5-2.083Zm-64.053-1.515c6.567,0,13.288-.294,19.79-.6,14.486-.671,29.46-1.361,43.853,1.566q-.741-1-1.5-1.976-1.2-.3-2.424-.569c-15.231-3.3-31.143-2.33-46.533-1.4-6.646.41-13.516.83-20.246.9q-4.544.047-8.935-.112c.872.559,1.776,1.119,2.727,1.678q6.427.494,13.269.517Zm-7.066-2.5c6.711-.07,13.581-.489,20.223-.895,15.422-.932,31.367-1.92,46.654,1.4.638.135,1.272.284,1.9.433-.494-.629-1-1.249-1.5-1.864-1.617-.466-3.262-.876-4.9-1.244-15.958-3.57-32.625-2.33-48.784-1.1-6.777.508-13.786,1.035-20.642,1.193q-2.675.061-5.3.056,1.286.932,2.722,1.9,4.712.189,9.629.14Zm-13.88-2.452c-.89-.671-1.766-1.37-2.629-2.088-1.4.037-2.8.051-4.153.056q1.361,1,2.8,1.944,1.967.079,3.985.1Zm-8.287-2.424c-.9-.69-1.785-1.4-2.647-2.13-1.4.042-2.824.075-4.218.089q1.4,1.016,2.848,1.981C459.432,249.986,460.766,249.986,462.112,249.986Zm-8.273-2.363q-1.4-1.053-2.7-2.167c-1.454.056-2.89.089-4.32.112.932.69,1.906,1.361,2.885,2.018C451.071,247.613,452.441,247.627,453.84,247.623ZM445.5,245.26q-.932-.7-1.822-1.431c-.308-.252-.61-.522-.932-.778q-2.232.089-4.423.14c.96.7,1.948,1.4,2.955,2.055Q443.376,245.273,445.5,245.26Zm-8.389-2.978c.275.21.555.415.834.62q2.223-.042,4.474-.131c-.932-.792-1.836-1.6-2.727-2.438q-2.33.172-4.661.294,1.039.844,2.083,1.655Zm6.11.466c1.519-.065,3.057-.154,4.6-.256-.881-.848-1.743-1.715-2.587-2.61q-1.659.159-3.3.3c-.5.042-1,.07-1.5.112q1.37,1.249,2.787,2.438Zm5.369-.308.382-.028c1.44-.1,2.89-.228,4.344-.359-.839-.9-1.645-1.832-2.438-2.8q-2.466.284-4.926.531c.862.9,1.738,1.785,2.643,2.638Zm5.486-.466c1.627-.154,3.263-.322,4.884-.494-.783-.932-1.538-1.925-2.274-2.922q-2.545.322-5.1.625,1.216,1.426,2.494,2.792Zm5.639-.573c3.7-.405,7.392-.853,11.018-1.3,19.314-2.354,39.29-4.787,58.357-.112a83.28,83.28,0,0,1,13.9,4.749c-.466-.424-.909-.839-1.37-1.258a82.88,82.88,0,0,0-17.007-6.306c-19.822-4.95-40.632-2.2-60.757.466q-3.2.424-6.464.844c.755.983,1.533,1.958,2.33,2.913Zm69.305-1.123c-19.016-4.661-38.964-2.228-58.259.121-3.565.433-7.191.876-10.822,1.272.792.932,1.6,1.864,2.447,2.745,5.089-.438,10.2-1,15.189-1.557,18.5-2.055,37.635-4.195,55.929.21a83.285,83.285,0,0,1,11.568,3.7l-1.4-1.4a83.041,83.041,0,0,0-14.649-5.09Zm16.434,6.646c.629.256,1.258.522,1.864.792-.466-.424-.932-.83-1.366-1.24-.62-.308-1.249-.611-1.864-.9.466.443.923.89,1.37,1.347Zm2.377,1.016c.564.247,1.119.5,1.673.764-.382-.336-.764-.68-1.151-1h0c-.583-.308-1.165-.615-1.757-.932.41.387.825.774,1.24,1.17Zm.69.657c.466.438.9.881,1.352,1.333.615.247,1.226.5,1.832.76-.429-.406-.862-.811-1.3-1.2-.62-.3-1.249-.6-1.883-.9Zm3.766,2.33c.545.238,1.1.466,1.636.736-.4-.345-.8-.676-1.193-1.007-.541-.289-1.086-.564-1.636-.839.405.378.8.746,1.2,1.1Zm.755.713c.433.424.862.858,1.3,1.291.606.238,1.212.466,1.813.736-.433-.405-.876-.8-1.314-1.188-.592-.27-1.188-.55-1.79-.825Zm3.729,2.279q.783.336,1.552.685l-1.091-.932c-.536-.275-1.067-.55-1.608-.816.378.368.755.718,1.142,1.077Zm.8.769c.415.405.834.811,1.249,1.226.583.224,1.161.466,1.734.69-.4-.373-.8-.741-1.2-1.1-.592-.266-1.188-.536-1.785-.8Zm1.943,1.934c.289.3.583.583.867.886.168.177.336.364.5.545.629.214,1.258.433,1.864.662-.466-.438-.89-.881-1.342-1.305-.62-.256-1.254-.517-1.9-.774Zm3.868,2.33c.573.214,1.147.438,1.72.662l-1.268-1.137c-.564-.261-1.133-.513-1.7-.764.4.41.825.825,1.235,1.249Zm2.47.969c.466.2.965.4,1.44.606-.345-.294-.694-.592-1.044-.881-.466-.247-.983-.489-1.482-.722.359.336.722.671,1.081,1.007Zm.895.844c.149.144.3.28.466.419.27.266.531.536.8.8.569.205,1.133.424,1.692.643-.41-.373-.82-.75-1.235-1.114-.587-.247-1.151-.5-1.724-.741Zm3.789,2.2c.466.186.932.368,1.4.559-.359-.3-.718-.587-1.081-.881-.466-.233-.932-.466-1.4-.68.34.345.713.671,1.077,1.011Zm3.649,2.06c.34.3.671.615,1.011.932.466.182.932.378,1.4.569l-1-.82c-.471-.224-.937-.457-1.412-.671Zm2.032,1.864c.4.378.792.769,1.189,1.156.541.186,1.086.368,1.622.564-.4-.359-.811-.713-1.221-1.067l-1.594-.643ZM580,268.969l1.328.513c-.256-.21-.508-.429-.769-.634l-.21-.163q-.7-.322-1.4-.629c.359.312.727.615,1.044.923Zm7.69,3.854c-.093-.042-.186-.093-.28-.14l-.564-.256c.205.163.405.336.611.5l.816.312Zm-2.545-1.184-1.272-.555c.34.294.68.587,1.021.89l1.305.466c-.364-.27-.708-.55-1.053-.792Zm-2.5-1.077c-.541-.224-1.091-.438-1.641-.652.41.382.825.764,1.226,1.156.541.177,1.077.354,1.608.536-.4-.336-.788-.685-1.193-1.03Zm-2.582-1c-.6-.224-1.193-.466-1.794-.653.443.443.876.9,1.31,1.352q.932.27,1.832.559C580.966,270.39,580.514,269.971,580.062,269.561Zm-2.573-.932c-.653-.224-1.3-.443-1.962-.652.466.508.932,1.016,1.4,1.533.662.172,1.314.359,1.967.545Q578.2,269.337,577.489,268.628Zm-2.582-.844c-.69-.219-1.4-.429-2.083-.634q.727.83,1.44,1.678c.7.172,1.4.35,2.107.531-.485-.527-.97-1.053-1.464-1.571Zm-2.605-.778c-.722-.2-1.445-.4-2.177-.592.494.6.988,1.2,1.473,1.813.732.154,1.459.326,2.186.494-.489-.559-.983-1.142-1.482-1.71ZM569.7,266.3c-.75-.191-1.505-.378-2.265-.55q.741.955,1.473,1.93c.764.14,1.524.3,2.284.466C570.694,267.533,570.2,266.923,569.7,266.3Zm-2.633-.629c-.769-.172-1.538-.331-2.33-.466q.741,1.007,1.468,2.027c.778.126,1.561.261,2.33.4q-.708-.979-1.468-1.944Zm-2.619-.55-.149-.033c-.75-.144-1.5-.28-2.247-.405q.741,1.058,1.464,2.13c.806.112,1.608.228,2.414.354-.489-.667-.983-1.333-1.482-2.027Zm-2.652-.466c-.811-.135-1.627-.266-2.442-.382.466.736.974,1.473,1.45,2.219.825.093,1.65.2,2.47.308C562.78,266.079,562.29,265.366,561.792,264.653Zm-2.647-.41c-11.507-1.636-23.332-1.487-34.816-1.338-6.2.084-12.612.168-18.876-.033q-9.685-.317-18.457-1.473c.75.331,1.529.652,2.33.979a185.592,185.592,0,0,0,23.22,2.47c6.087.289,12.328.326,18.359.364,9.788.056,19.831.121,29.7,1.254Q559.881,265.366,559.144,264.243Zm-53.673-1.888c6.255.2,12.659.117,18.848.037,11.358-.149,23.043-.3,34.448,1.282-.466-.727-.988-1.445-1.487-2.163-13.008-2.251-26.478-1.841-39.532-1.445-6.353.191-12.924.391-19.351.284q-8.077-.14-15.539-.89c.8.4,1.622.792,2.475,1.189a182.846,182.846,0,0,0,20.139,1.706Zm-24.18-3.048c-.932-.107-1.892-.214-2.829-.336q1.077.466,2.181.932c.9.158,1.813.312,2.727.466C482.671,260.011,481.981,259.657,481.291,259.307Zm-1.165-.62q-1.212-.662-2.4-1.366-1.664-.126-3.3-.284c.83.424,1.678.839,2.535,1.24,1.049.13,2.1.27,3.169.4Zm-3.3-1.9c-.867-.527-1.729-1.067-2.577-1.627q-1.836-.075-3.64-.191c.89.513,1.8,1.011,2.727,1.5q1.727.154,3.491.3Zm-7.536-1.906q-1.613-.117-3.211-.256,1.328.676,2.7,1.314c.983.13,1.976.247,2.978.359q-1.258-.722-2.466-1.431Zm-.811-.466c-.876-.541-1.734-1.1-2.582-1.664-1.207-.042-2.414-.093-3.6-.163q1.37.788,2.8,1.538,1.678.13,3.388.256Zm-7.457-1.9c-1.147-.075-2.288-.154-3.416-.252.89.466,1.8.9,2.722,1.338q1.608.205,3.263.378-1.291-.732-2.549-1.5Zm-.76-.466c-.932-.555-1.8-1.128-2.671-1.71q-1.911-.056-3.78-.154c.932.541,1.864,1.067,2.852,1.58,1.207.084,2.4.182,3.617.261Zm-7.616-1.925c-1.156-.065-2.3-.149-3.435-.238.932.466,1.864.932,2.857,1.4q1.585.2,3.207.354c-.876-.517-1.748-1.021-2.61-1.538Zm-.7-.424c-.932-.569-1.836-1.156-2.731-1.752q-1.929-.047-3.826-.131c.969.555,1.957,1.1,2.964,1.627,1.2.075,2.4.158,3.621.233Zm-7.662-1.939c-1.216-.061-2.424-.14-3.617-.228q1.44.741,2.936,1.436c1.128.13,2.274.247,3.426.354-.913-.531-1.827-1.049-2.727-1.585Zm-.643-.382c-.965-.583-1.906-1.184-2.834-1.8-1.328-.023-2.647-.056-3.957-.112q1.482.853,3.015,1.655c1.268.065,2.522.163,3.794.233Zm-7.835-1.958q-1.864-.084-3.729-.214c.993.5,1.995.993,3.015,1.463q1.757.2,3.547.35-1.426-.8-2.815-1.622Zm-.587-.35c-.983-.592-1.944-1.2-2.89-1.832-1.37,0-2.731-.051-4.083-.1,1.011.583,2.046,1.142,3.09,1.687,1.305.075,2.6.154,3.9.219Zm-7.923-1.967q-1.943-.079-3.854-.2,1.524.769,3.095,1.491c1.216.126,2.442.247,3.677.345q-1.482-.82-2.918-1.664Zm-.536-.317c-1.011-.606-2-1.23-2.974-1.864q-2.111,0-4.195-.079c1.039.6,2.1,1.17,3.179,1.725q1.976.107,3.99.2Zm-3.463-2.741c.3.205.611.4.932.6,1.468,0,2.941,0,4.432-.033-.974-.732-1.934-1.487-2.871-2.265q-2.33.117-4.614.191c.69.494,1.4.993,2.121,1.482Zm6.138.545c1.505-.033,3.025-.089,4.558-.158-.932-.8-1.864-1.613-2.75-2.456-1.594.126-3.179.238-4.749.326.96.764,1.944,1.529,2.941,2.265Zm5.3-.2q2.33-.117,4.693-.289c-.895-.853-1.762-1.738-2.61-2.633l-1.948.2c-.988.093-1.958.168-2.936.247.927.825,1.86,1.655,2.792,2.456Zm5.43-.345,1.743-.126q1.538-.13,3.09-.284c-.8-.858-1.594-1.729-2.33-2.629l-.149-.182c-1.673.2-3.342.4-5.006.573.853.881,1.738,1.766,2.652,2.624Zm9.941-2.652c.41.517.834,1.021,1.254,1.524q2.563-.3,5.127-.625-1.109-1.51-2.139-3.085c-1.776.247-3.556.5-5.346.741C449.389,236.469,449.752,236.935,450.111,237.4Zm7.084.811q3.328-.429,6.609-.862c20.148-2.657,40.982-5.4,60.855-.466a83.112,83.112,0,0,1,16.163,5.882c-.424-.373-.853-.741-1.282-1.1a82.916,82.916,0,0,0-19.356-7.62c-20.652-5.243-42.347-2.172-63.325.8l-1.822.256c.713,1.086,1.431,2.121,2.177,3.127Zm84.168,4.829.037.037q.755.368,1.5.755c-.354-.289-.718-.573-1.081-.858-.527-.308-1.053-.611-1.585-.909C540.609,242.393,541,242.71,541.364,243.041Zm.778.708c.433.4.862.792,1.286,1.2.583.261,1.161.527,1.738.8-.121-.1-.242-.214-.359-.322-.294-.252-.592-.494-.89-.746-.592-.317-1.179-.625-1.776-.932Zm2.8,1.543c.284.242.569.508.848.755l1.436.718-1-.8q-.741-.434-1.5-.853c.056.056.131.116.2.177Zm4.288,2.876,1.007.872c.466.219.9.466,1.356.671l-.932-.75c-.5-.27-.969-.531-1.445-.792Zm5.462,3.854c.424.2.844.41,1.263.62l-.466-.4-.359-.275-1.338-.75Zm3.635,2.237c.294.256.587.508.876.769l1.17.55-.825-.648c-.419-.228-.839-.447-1.235-.671Zm1.864,1.655c.364.331.722.667,1.081,1,.5.214,1.007.429,1.5.648-.354-.3-.713-.6-1.072-.9-.5-.252-1.007-.5-1.515-.75Zm3.514,2.069c.368.168.741.345,1.109.522l-.727-.564-1.156-.629Zm2.41,1.156.34.168-.047-.033-.466-.261Zm1.4,1.184c.266.219.527.443.788.667l1,.466-.732-.564c-.331-.186-.685-.382-1.039-.569Zm3.211,1.8.163.075-.242-.14Zm1.519,1.244c.252.21.5.429.75.643l.96.424c-.228-.177-.466-.354-.69-.527-.317-.182-.657-.364-1-.541Zm3.263,1.785.079.042a1.054,1.054,0,0,0-.121-.075Zm1.547,1.268.345.28.34.3c.3.13.606.252.909.387-.214-.163-.429-.317-.643-.466-.308-.158-.62-.34-.941-.5Zm15.725,9.391c-.3-.14-.6-.284-.9-.419.191.149.387.3.573.466.28.1.55.205.825.308Zm-2.666-1.207-1.3-.55c.326.28.643.569.969.853.466.149.881.308,1.319.466-.317-.261-.643-.517-.974-.769Zm-2.615-1.067c-.527-.21-1.053-.415-1.589-.615.415.378.83.76,1.235,1.147.541.163,1.067.336,1.6.508-.4-.359-.82-.694-1.235-1.039Zm-2.563-.965c-.615-.224-1.23-.443-1.864-.652q.685.671,1.356,1.356c.62.172,1.226.354,1.836.531-.429-.415-.867-.83-1.319-1.235Zm-2.652-.932c-.648-.21-1.3-.419-1.948-.62.466.5.932,1.011,1.4,1.524.667.168,1.328.345,1.986.522-.461-.461-.941-.932-1.426-1.408Zm-2.6-.8c-.69-.205-1.4-.405-2.079-.6.494.555.983,1.109,1.464,1.678.7.158,1.4.326,2.088.494C580.644,271.891,580.146,271.364,579.679,270.842Zm-2.638-.746q-1.077-.294-2.167-.559c.494.6.979,1.2,1.468,1.8.736.149,1.473.3,2.2.466q-.764-.848-1.524-1.71Zm-2.657-.681c-.746-.177-1.5-.35-2.246-.513.5.639.993,1.272,1.482,1.92.76.135,1.515.275,2.27.424-.517-.615-1.016-1.221-1.524-1.832Zm-5.327-1.142-.336-.065c-.68-.126-1.366-.242-2.051-.359q.741,1.053,1.464,2.116c.806.107,1.608.224,2.41.345-.508-.68-1.007-1.361-1.505-2.037Zm-2.68-.466c-.811-.135-1.627-.256-2.442-.373.466.727.96,1.454,1.436,2.191q1.244.14,2.484.308-.76-1.077-1.5-2.13Zm-2.689-.405q-1.244-.177-2.493-.322c.466.746.932,1.491,1.4,2.246q1.272.126,2.535.27-.727-1.109-1.459-2.2Zm-2.694-.345c-9.988-1.174-20.167-1.24-30.08-1.3-6.059-.037-12.286-.075-18.387-.364a190.455,190.455,0,0,1-20.75-2.06c.5.186.993.378,1.505.564a184.033,184.033,0,0,0,26.338,3.449c5.933.378,12.011.541,17.888.694,8.2.224,16.588.466,24.893,1.258-.485-.755-.951-1.505-1.426-2.251Zm-72.083-4.195-.606-.112.816.2Zm-3.952-1.738q-1.049-.154-2.083-.322c.6.238,1.212.466,1.827.694l1.953.4c-.583-.256-1.151-.517-1.715-.778Zm-6.921-1.7-1.575-.732-1.864-.275c.578.224,1.165.466,1.757.666Zm1.669.811,1.067.34-.648-.266ZM475,257.96q-1.1-.545-2.167-1.119-1.342-.14-2.666-.3,1.17.522,2.372,1.021c.816.163,1.631.294,2.461.419Zm-6.712-1.636c-.769-.1-1.533-.21-2.293-.326q.932.373,1.9.727c.727.145,1.459.289,2.2.424C469.472,256.879,468.875,256.6,468.288,256.324Zm-1.361-.653q-1.188-.587-2.33-1.2-1.5-.144-2.978-.322,1.235.559,2.517,1.1c.89.149,1.822.289,2.782.429Zm-7.089-1.748c-.732-.093-1.464-.2-2.186-.3.75.294,1.505.578,2.274.858.634.121,1.268.247,1.911.364-.685-.3-1.347-.606-2.009-.923Zm-1.216-.583c-.811-.4-1.608-.816-2.4-1.235q-1.468-.14-2.913-.3c.867.387,1.743.769,2.633,1.137q1.319.21,2.666.4Zm-6.991-1.734q-1.272-.154-2.531-.331,1.147.466,2.33.876c.778.149,1.561.294,2.354.429-.736-.317-1.45-.639-2.158-.974Zm-1.165-.55q-1.3-.638-2.554-1.3-1.6-.14-3.179-.312c.9.406,1.808.8,2.736,1.179q1.487.228,2.992.433Zm-7.289-1.785q-1.366-.168-2.708-.35,1.223.475,2.466.932c.83.158,1.669.308,2.507.466-.769-.336-1.524-.7-2.27-1.049Zm-1.077-.513c-.9-.433-1.78-.881-2.652-1.342-1.114-.089-2.218-.2-3.318-.308.932.415,1.864.825,2.838,1.216,1.03.158,2.074.3,3.127.433Zm-7.42-1.8q-1.45-.168-2.876-.359,1.291.5,2.615.974c.885.163,1.776.322,2.675.466-.82-.35-1.622-.713-2.419-1.081Zm-.993-.466q-1.4-.68-2.759-1.4-1.734-.13-3.444-.3c.974.433,1.953.858,2.955,1.258,1.067.163,2.153.3,3.244.438Zm-7.527-1.822c-1.035-.112-2.055-.233-3.071-.364q1.366.522,2.764,1.021,1.426.252,2.871.466c-.872-.359-1.724-.741-2.568-1.128Zm-.932-.429c-.969-.466-1.92-.932-2.862-1.426-1.207-.084-2.41-.182-3.6-.294,1.007.443,2.023.876,3.057,1.291,1.119.149,2.256.294,3.4.424Zm-3.547-1.771c-1.016-.541-2.013-1.1-3-1.669q-2.014-.07-4-.191c1.049.527,2.121,1.035,3.2,1.524Q419.788,242.323,421.681,242.468Zm-8.017-1.925c-1.244-.084-2.484-.172-3.729-.28q1.561.685,3.165,1.319c1.17.154,2.33.3,3.533.429-.974-.475-1.944-.965-2.95-1.468Zm-.6-.317q-1.571-.82-3.09-1.7-2.074-.056-4.12-.168,1.627.811,3.309,1.557,1.948.182,3.92.312Zm-8.152-1.92c-1.305-.079-2.6-.168-3.882-.275q1.622.7,3.29,1.347,1.818.233,3.668.415c-1.021-.475-2.046-.993-3.057-1.487Zm-2.33-1.659q1.356.741,2.754,1.44,2.088.116,4.195.186l-.266-.154c-.96-.564-1.9-1.161-2.843-1.766-1.482,0-2.96,0-4.418-.028.205.107.392.219.569.322Zm6.9,1.123c.3.182.615.354.932.531,1.454.037,2.913.061,4.386.061-1.03-.68-2.051-1.4-3.048-2.111-1.538.051-3.062.079-4.577.093q1.147.732,2.312,1.426Zm6.1.6q2.244,0,4.521-.065c-.993-.746-1.976-1.51-2.936-2.3q-2.377.14-4.717.224,1.547,1.109,3.137,2.144Zm5.267-.079c1.543-.042,3.09-.107,4.661-.186-.96-.806-1.892-1.641-2.8-2.494q-2.442.2-4.847.354c.974.8,1.971,1.58,2.987,2.326Zm5.364-.233q2.377-.135,4.787-.322c-.806-.764-1.6-1.538-2.368-2.33l-.317-.34-.508.061q-2.242.238-4.451.429,1.4,1.286,2.862,2.5Zm2.8-3.011c.867.9,1.771,1.771,2.689,2.629,1.049-.084,2.093-.163,3.151-.266l1.762-.182c-.322-.34-.653-.68-.969-1.03q-.806-.895-1.58-1.818-2.559.331-5.127.611Zm7.038.788c.406.466.83.886,1.244,1.328q2.508-.266,5.029-.578c-.811-.974-1.6-1.976-2.368-3q-2.619.368-5.248.713Q435.365,235.071,436.05,235.836Zm6.945.671q2.6-.322,5.183-.671c-.75-1.021-1.473-2.069-2.172-3.137q-2.694.405-5.4.788,1.161,1.552,2.391,3.02Zm5.863-.76q2.694-.363,5.364-.746c-.685-1.058-1.352-2.135-1.99-3.235l-2.4.359-3.174.466q1.063,1.617,2.2,3.155Zm6.059-.844,1.939-.27c21-2.974,42.72-6.059,63.419-.792A83.183,83.183,0,0,1,538.6,240.9c-.368-.3-.736-.606-1.114-.9A83.225,83.225,0,0,0,515.8,230.97c-20.507-5.285-42-2.438-62.92.694.652,1.1,1.328,2.181,2.023,3.239Zm60.944-4.139A83.5,83.5,0,0,1,536.172,239c-.3-.228-.6-.466-.9-.671A83.97,83.97,0,0,0,511.4,227.866c-19.687-5.15-40.273-2.862-60.44.238q.881,1.715,1.832,3.365c20.941-3.141,42.492-6.008,63.06-.7Zm22.609,9.829c.284.228.573.466.853.694.359.191.713.391,1.067.587-.228-.172-.466-.345-.69-.513q-.625-.392-1.24-.769Zm4.554,3.095.694.578.932.513-.6-.438Zm4.53,3.081c.2.158.4.317.6.466l.769.419-.466-.336c-.284-.177-.6-.364-.909-.55Zm4.572,3.067c.149.121.3.252.443.378.238.121.466.252.708.378-.116-.089-.242-.172-.363-.261Zm9.2,6.124.27.228.466.228-.149-.1Zm33.837,21.523-.629-.261-.69-.261c.345.284.685.569,1.021.858l1.3.4C595.824,277.992,595.489,277.75,595.158,277.484Zm-2.661-1.035c-.522-.191-1.049-.378-1.575-.559.41.368.811.746,1.216,1.123.536.149,1.072.3,1.6.466-.41-.326-.83-.667-1.244-1.007Zm-2.661-.932q-.872-.294-1.762-.573c.466.466.932.895,1.4,1.347.592.154,1.184.308,1.771.466-.475-.4-.941-.811-1.407-1.221Zm-2.619-.83c-.657-.205-1.319-.4-1.981-.587.466.5.965,1.011,1.436,1.524.671.154,1.333.312,1.995.466C588.185,275.62,587.705,275.153,587.216,274.687Zm-2.708-.8c-.676-.191-1.366-.373-2.051-.55.466.55.974,1.109,1.459,1.669.7.149,1.4.3,2.107.466-.5-.536-1.007-1.058-1.515-1.58Zm-2.68-.718c-.718-.182-1.44-.354-2.167-.522q.746.895,1.491,1.8c.732.14,1.463.28,2.191.429-.5-.569-1-1.128-1.515-1.706Zm-2.694-.648c-.746-.168-1.491-.331-2.246-.466.5.629.993,1.272,1.482,1.911.769.13,1.533.266,2.288.405-.513-.62-1.011-1.24-1.524-1.846Zm-5.416-1.1c-.205-.037-.4-.079-.606-.112-.592-.107-1.193-.2-1.79-.3q.741,1.044,1.459,2.1c.816.112,1.627.233,2.442.354Q574.478,272.436,573.718,271.425Zm-2.731-.466c-.811-.131-1.631-.247-2.447-.364q.718,1.077,1.435,2.167c.83.1,1.659.205,2.489.312-.485-.718-.979-1.417-1.477-2.116Zm-2.727-.4c-.834-.112-1.673-.219-2.508-.317q.7,1.1,1.4,2.214c.853.089,1.7.177,2.554.275Q568.988,271.639,568.261,270.558Zm-2.745-.345q-1.282-.149-2.559-.28.685,1.118,1.347,2.242c.872.079,1.743.168,2.61.256q-.69-1.114-1.4-2.219Zm-2.755-.3c-8.427-.848-16.956-1.077-25.289-1.3-5.882-.158-11.964-.322-17.907-.7a190.826,190.826,0,0,1-22.236-2.643l.629.205a187.11,187.11,0,0,0,28.71,4.362c5.8.466,11.74.764,17.487,1.049,6.572.331,13.278.671,19.957,1.268C563.665,271.425,563.218,270.661,562.761,269.915Zm-90.073-11.652-.653-.27-1.063-.182.466.149Zm-8.217-2.288-.848-.354-.816-.144,1.216.4Zm-7.765-2.172-1.291-.522-1.4-.238c.466.163.983.331,1.487.466Zm-8.236-2.256c-.489-.191-.974-.387-1.459-.587l-1.589-.256,1.585.513Zm-8.31-2.256c-.55-.214-1.1-.429-1.636-.652-.611-.093-1.216-.186-1.818-.289.6.2,1.2.391,1.8.583Zm-8.259-2.214c-.62-.238-1.23-.466-1.841-.727-.708-.1-1.4-.21-2.121-.326.671.219,1.342.433,2.023.643a18.282,18.282,0,0,0,1.939.415Zm-8.511-2.219c-.666-.252-1.328-.513-1.985-.778-.764-.107-1.529-.224-2.284-.345q1.109.364,2.242.7Zm-3.211-1.286q-1.361-.578-2.694-1.184-1.608-.159-3.193-.359,1.44.545,2.913,1.063,1.482.252,2.974.475Zm-7.457-1.738q-1.272-.177-2.521-.364,1.226.391,2.465.755c.746.158,1.491.308,2.247.466q-1.091-.429-2.177-.862Zm-1.123-.466c-.96-.4-1.911-.811-2.852-1.23-1.119-.112-2.237-.224-3.342-.354q1.515.573,3.071,1.1,1.552.242,3.137.485Zm-7.676-1.776c-.909-.121-1.818-.238-2.717-.368q1.333.419,2.694.816c.82.163,1.645.326,2.475.466q-1.226-.433-2.438-.909Zm-1.007-.4c-.993-.406-1.976-.82-2.95-1.254-1.2-.107-2.382-.228-3.561-.364,1.044.387,2.093.76,3.16,1.114,1.142.186,2.237.354,3.365.508Zm-7.8-1.752c-1.016-.126-2.018-.266-3.016-.41q1.4.433,2.8.834c.932.182,1.864.368,2.824.536C396.853,238.087,395.991,237.77,395.114,237.439Zm-.932-.364q-1.571-.62-3.113-1.3c-1.249-.1-2.489-.214-3.729-.345q1.668.611,3.384,1.165C391.884,236.772,393.036,236.935,394.182,237.075Zm-8.054-1.78c-1.058-.121-2.107-.247-3.146-.391.979.3,1.958.592,2.955.867q1.459.27,2.946.517c-.918-.317-1.836-.653-2.745-.993Zm.387-.168q1.948.219,3.934.387-.932-.405-1.818-.825c-.5-.233-.988-.466-1.482-.718q-2.1-.1-4.195-.238c1.193.485,2.372.946,3.57,1.394Zm2.251-.732c.89.415,1.794.816,2.7,1.207q2.055.168,4.143.28l-.1-.051c-1.067-.541-2.125-1.119-3.174-1.7-1.468-.028-2.927-.065-4.376-.126.28.135.545.266.816.391Zm6.912,1.142c.28.144.564.28.844.419,1.431.07,2.88.121,4.334.158-1.091-.629-2.167-1.277-3.23-1.953h-4.54C393.945,234.605,394.807,235.071,395.678,235.537Zm5.961.569c1.482.033,2.978.042,4.484.037-1.053-.69-2.1-1.4-3.118-2.135-1.571.061-3.132.107-4.661.13C399.412,234.819,400.521,235.472,401.639,236.106Zm5.211.033c1.529,0,3.071-.042,4.623-.093q-1.524-1.126-2.992-2.33c-1.617.1-3.225.191-4.815.256Q405.233,235.071,406.85,236.138Zm5.323-.117c1.571-.051,3.16-.126,4.759-.219-.783-.648-1.557-1.31-2.307-1.99l-.569-.522q-2.489.214-4.94.387c1,.8,2.018,1.589,3.057,2.326Zm2.759-2.549c.872.788,1.771,1.547,2.685,2.293q2.419-.149,4.88-.35c-.289-.27-.583-.531-.862-.806q-.965-.932-1.892-1.9-2.554.294-5.066.522Zm7.038.788c.387.373.788.736,1.184,1.1,1.538-.135,3.081-.284,4.661-.466l.35-.037c-.886-.932-1.752-1.9-2.591-2.885-1.6.214-3.2.424-4.8.611l-.4.047Q421.149,233.468,421.97,234.26Zm6.809.541q2.559-.289,5.127-.611-1.235-1.482-2.4-3.043-2.671.4-5.337.764C427.012,232.9,427.884,233.864,428.779,234.8Zm5.761-.7q2.636-.342,5.267-.713c-.76-1.03-1.5-2.1-2.209-3.179q-2.731.433-5.486.848c.788,1.039,1.594,2.06,2.428,3.043Zm5.914-.806q2.722-.382,5.42-.792-1.049-1.608-2.023-3.286l-1.147.186-4.488.708Q439.3,231.739,440.454,233.3Zm6.059-.89,3.263-.466,2.33-.35q-.932-1.65-1.818-3.365l-5.821.932c.671,1.081,1.356,2.186,2.06,3.249Zm60.459-7.644c-18.82-4.987-38.442-3.263-57.793-.3.531,1.179,1.1,2.33,1.673,3.468,20.2-3.109,40.833-5.406,60.589-.242a84.109,84.109,0,0,1,21.537,9.014,84.6,84.6,0,0,0-26.007-11.941Zm96.575,56.968-.583-.373-.806-.322.6.466Zm-2.251-.685-1.007-.722-1.3-.466,1.03.844Zm-2.428-.666c-.429-.35-.858-.69-1.286-1.025q-.792-.27-1.594-.531c.424.373.844.75,1.263,1.128C597.791,280.085,598.322,280.234,598.868,280.378Zm-2.545-.653c-.466-.424-.955-.834-1.436-1.249-.592-.186-1.188-.373-1.79-.545.466.443.932.895,1.4,1.347.6.14,1.212.294,1.827.447Zm-2.661-.634c-.466-.466-.988-.932-1.487-1.4q-.956-.275-1.93-.531c.494.508.988,1.016,1.477,1.533C592.38,278.812,593.028,278.947,593.662,279.092Zm-2.638-.569c-.508-.536-1.021-1.058-1.533-1.58-.7-.182-1.4-.359-2.116-.531.508.559,1.016,1.119,1.515,1.687.722.14,1.435.275,2.144.424Zm-2.736-.536c-.517-.583-1.039-1.156-1.561-1.729-.718-.168-1.44-.336-2.167-.494q.76.9,1.51,1.818c.75.126,1.491.266,2.228.405Zm-2.75-.5c-.513-.62-1.025-1.235-1.547-1.864-.75-.158-1.51-.312-2.27-.466q.764.932,1.51,1.92c.783.145,1.547.28,2.316.406Zm-2.768-.466q-.764-.983-1.538-1.948c-.774-.149-1.547-.289-2.33-.424.5.666,1,1.338,1.491,2.009q1.2.182,2.386.359Zm-2.8-.424c-.5-.68-1-1.356-1.505-2.023-.322-.056-.634-.117-.932-.168-.466-.079-.969-.144-1.449-.219.489.69.979,1.4,1.463,2.079.806.117,1.622.224,2.438.34Zm-2.8-.378c-.466-.7-.979-1.4-1.473-2.088-.825-.126-1.645-.256-2.47-.368q.722,1.063,1.426,2.139c.825.112,1.682.214,2.521.326Zm-2.829-.354c-.466-.718-.932-1.431-1.431-2.139-.839-.117-1.682-.219-2.526-.317q.695,1.077,1.4,2.158Zm-2.848-.326c-.466-.727-.932-1.445-1.4-2.167l-2.573-.284q.662,1.081,1.319,2.172c.9.1,1.776.2,2.657.289Zm-2.866-.3c-.438-.727-.876-1.449-1.324-2.172-.876-.093-1.757-.186-2.633-.266q.634,1.086,1.268,2.181Zm-34.9-2.88c5.737.569,11.61,1.007,17.291,1.436,4.88.368,9.788.741,14.733,1.2-.419-.732-.844-1.454-1.272-2.181-6.8-.625-13.651-.969-20.358-1.3-5.751-.289-11.7-.583-17.51-1.053q-10.487-.844-19.575-2.461a197.888,197.888,0,0,0,26.692,4.362ZM416.908,243.386l-.14-.047-.163-.033Zm-8.324-2.1-.527-.172-.606-.107Zm-8.436-2.069-.932-.317-.993-.158C398.843,238.907,399.5,239.065,400.148,239.219Zm-8.706-2.093-1.1-.354c-.466-.075-.932-.158-1.4-.238C389.759,236.744,390.6,236.935,391.442,237.127Zm-8.389-1.934c-.569-.168-1.133-.345-1.7-.522-.587-.089-1.174-.172-1.757-.266,1.119.275,2.265.541,3.43.788Zm-8.911-1.985c-.643-.186-1.286-.373-1.925-.569-.7-.1-1.4-.2-2.1-.3C371.419,232.634,372.743,232.927,374.141,233.207Zm-13.572-2.852c1.566.35,3.146.685,4.749.988-.75-.21-1.491-.429-2.232-.648q-1.286-.172-2.54-.35Zm3.78.494c1.128.322,2.265.625,3.412.932q1.664.28,3.356.527c-1.044-.336-2.079-.671-3.1-1.035h-.042c-1.235-.154-2.442-.289-3.645-.433Zm4.661.489c1.193.41,2.4.8,3.626,1.174q1.864.261,3.808.466c-.517-.191-1.039-.373-1.547-.573-.62-.242-1.235-.494-1.864-.746-1.366-.1-2.708-.21-4.046-.317Zm6.213.466-1.342-.084c.373.154.741.308,1.114.466.839.326,1.7.634,2.549.932q2,.205,4.036.364-1.715-.741-3.388-1.547l-2.992-.154Zm3.729.154q1.473.694,2.969,1.338l.578.242q2.13.154,4.292.252-1.692-.839-3.351-1.748-2.307-.037-4.535-.107Zm5.164.093c1.147.615,2.33,1.207,3.486,1.776q2.209.093,4.456.135c-1.114-.629-2.218-1.277-3.3-1.948q-2.391.019-4.689.014ZM389.41,232q1.669,1.021,3.384,1.976,2.279.028,4.6,0-1.627-1.044-3.193-2.149-2.456.089-4.838.149Zm5.406-.2c1.072.746,2.153,1.477,3.263,2.177,1.566-.023,3.141-.061,4.726-.121-.727-.527-1.445-1.067-2.153-1.613l-.932-.736q-2.507.149-4.95.27Zm5.514-.336c.191.149.378.308.573.466.839.652,1.7,1.282,2.563,1.9q2.4-.1,4.852-.252c-.219-.182-.466-.354-.657-.536-.778-.648-1.538-1.319-2.288-1.995-1.743.126-3.421.289-5.089.392Zm5.625-.466c.652.583,1.314,1.16,1.985,1.72.331.28.676.55,1.011.82q2.466-.158,4.968-.387c-.932-.881-1.892-1.78-2.8-2.713q-2.652.27-5.215.522Zm7.783-.886-2.046.256q1.4,1.4,2.848,2.731,2.526-.228,5.089-.522c-.932-.932-1.8-1.916-2.661-2.913-1.123.117-2.2.275-3.277.41Zm3.812-.527q1.31,1.5,2.689,2.927l.541-.061c1.552-.182,3.113-.387,4.661-.6-.844-1-1.659-2.027-2.456-3.076q-2.759.382-5.5.769Zm5.994-.937q1.2,1.585,2.48,3.09,2.68-.364,5.355-.764c-.778-1.044-1.529-2.121-2.26-3.221Q426.341,228.22,423.545,228.653Zm6.166-.988q1.1,1.65,2.284,3.225,2.759-.41,5.5-.848c-.713-1.086-1.4-2.2-2.065-3.332Zm6.32-1.058c.666,1.137,1.366,2.251,2.083,3.337l4.572-.727,1.077-.168c-.648-1.123-1.277-2.256-1.864-3.421Z" transform="translate(-268.641 -37.88)" fill="rgba(241,185,36,0.15)" style="mix-blend-mode: screen;isolation: isolate"/>
    </g>
  </g>
</svg>
