<svg width="23" height="21" viewBox="0 0 23 21" fill="none" xmlns="http://www.w3.org/2000/svg">
<path d="M21.5372 0.303128C20.6697 -0.00297576 19.7433 0.442755 19.4243 1.24829L14.5742 14.0241L10.796 4.05424C10.5329 3.36685 9.83883 2.96409 9.13076 3.0151C8.48987 3.04732 7.90775 3.45009 7.66706 4.05424L4.96915 11.1832L3.32353 6.8602C3.00448 6.02781 2.05014 5.61162 1.21054 5.91504C0.342953 6.22114 -0.0936389 7.13677 0.225409 7.9423L3.41029 16.387C3.41869 16.4112 3.43268 16.4327 3.44387 16.4568C3.45507 16.481 3.46626 16.5052 3.47746 16.5293C3.5922 16.7629 3.76012 16.9563 3.96443 17.1013C3.99521 17.1227 4.0288 17.1442 4.05958 17.1657C4.16313 17.2301 4.27508 17.2865 4.39262 17.3322C4.48778 17.3617 4.58853 17.3832 4.68928 17.3966C4.77324 17.41 4.8572 17.4154 4.94116 17.4154C5.14266 17.4154 5.31618 17.3886 5.54847 17.3322C6.13899 17.1254 6.528 16.634 6.61756 16.089L9.22872 9.19088L13.0237 19.1903C13.0321 19.2144 13.0461 19.2386 13.0573 19.2628C13.0685 19.2869 13.0797 19.3111 13.0909 19.3353C13.2056 19.5689 13.3735 19.7595 13.5778 19.9072C13.6086 19.9287 13.6394 19.9502 13.673 19.9717C13.7765 20.0361 13.8885 20.0925 14.006 20.1381C14.1796 20.1945 14.3811 20.2214 14.5574 20.2214C14.7589 20.2214 14.9324 20.1945 15.1367 20.1381C15.7244 19.9314 16.1134 19.4427 16.203 18.9003L22.5196 2.33308C22.8386 1.49801 22.3768 0.609232 21.5372 0.303128Z" fill="#F1B924"/>
</svg>
