<svg xmlns="http://www.w3.org/2000/svg" width="12.398" height="11.901" viewBox="0 0 12.398 11.901">
  <g id="wallet" transform="translate(0 -17.84)">
    <g id="Group_18879" data-name="Group 18879" transform="translate(0 17.84)">
      <path id="Path_1206" data-name="Path 1206" d="M160.177,20.106l4.942-1.349-.262-.529a.7.7,0,0,0-.933-.315L159.5,20.106Z" transform="translate(-157.279 -17.84)" fill="#707070"/>
      <path id="Path_1207" data-name="Path 1207" d="M326.891,86.46a.7.7,0,0,0-.184.025l-1.161.317L322,87.77h5.779l-.217-.8A.7.7,0,0,0,326.891,86.46Z" transform="translate(-317.517 -85.505)" fill="#707070"/>
      <path id="Path_1208" data-name="Path 1208" d="M10.988,215.56H.7a.7.7,0,0,0-.672.514.721.721,0,0,0-.025.182v7.756a.7.7,0,0,0,.7.7h10.29a.7.7,0,0,0,.7-.7V222.07H7.552a1.184,1.184,0,0,1-1.183-1.183v-1.548a1.182,1.182,0,0,1,1.182-1.182h4.132v-1.9A.694.694,0,0,0,10.988,215.56Z" transform="translate(0 -212.807)" fill="#707070"/>
      <path id="Path_1209" data-name="Path 1209" d="M497.716,436.943a.7.7,0,0,0-.244-.145.709.709,0,0,0-.226-.038H493.1a.7.7,0,0,0-.7.7v1.55a.7.7,0,0,0,.7.7h4.15a.709.709,0,0,0,.226-.038.674.674,0,0,0,.244-.145.694.694,0,0,0,.227-.514v-1.55A.694.694,0,0,0,497.716,436.943Zm-3.166,1.427a.348.348,0,0,1-.348.348h-.231a.348.348,0,0,1-.348-.348v-.231a.341.341,0,0,1,.134-.273.352.352,0,0,1,.214-.075h.231a.348.348,0,0,1,.348.348v.231Z" transform="translate(-485.545 -430.929)" fill="#707070"/>
    </g>
  </g>
</svg>
